<?xml version="1.0" encoding="UTF-8" standalone="no"?>
<!DOCTYPE svg PUBLIC "-//W3C//DTD SVG 1.1//EN"
 "http://www.w3.org/Graphics/SVG/1.1/DTD/svg11.dtd">
<!-- Generated by graphviz version 13.1.0 (20250701.0955)
 -->
<!-- Title: src/driver_x9cxx.h Pages: 1 -->
<svg width="391pt" height="232pt"
 viewBox="0.00 0.00 391.00 232.00" xmlns="http://www.w3.org/2000/svg" xmlns:xlink="http://www.w3.org/1999/xlink">
<g id="graph0" class="graph" transform="scale(1 1) rotate(0) translate(4 228)">
<title>src/driver_x9cxx.h</title>
<!-- Node1 -->
<g id="Node000001" class="node">
<title>Node1</title>
<g id="a_Node000001"><a xlink:title="driver x9cxx header file">
<polygon fill="#999999" stroke="#666666" points="294.75,-224 198.5,-224 198.5,-204 294.75,-204 294.75,-224"/>
<text xml:space="preserve" text-anchor="middle" x="246.62" y="-210.5" font-family="Helvetica,sans-Serif" font-size="10.00">src/driver_x9cxx.h</text>
</a>
</g>
</g>
<!-- Node2 -->
<g id="Node000002" class="node">
<title>Node2</title>
<g id="a_Node000002"><a xlink:href="driver__x9cxx__interface_8h.html" target="_top" xlink:title="driver x9cxx interface header file">
<polygon fill="white" stroke="#666666" points="241.62,-168 129.62,-168 129.62,-136 241.62,-136 241.62,-168"/>
<text xml:space="preserve" text-anchor="start" x="137.62" y="-154.5" font-family="Helvetica,sans-Serif" font-size="10.00">interface/driver_x9cxx</text>
<text xml:space="preserve" text-anchor="middle" x="185.62" y="-142.5" font-family="Helvetica,sans-Serif" font-size="10.00">_interface.h</text>
</a>
</g>
</g>
<!-- Node1&#45;&gt;Node2 -->
<g id="edge1_Node000001_Node000002" class="edge">
<title>Node1&#45;&gt;Node2</title>
<g id="a_edge1_Node000001_Node000002"><a xlink:title=" ">
<path fill="none" stroke="#63b8ff" d="M228.98,-195.65C220.14,-186.95 209.53,-176.51 201.02,-168.14"/>
<polygon fill="#63b8ff" stroke="#63b8ff" points="226.43,-198.05 236.01,-202.56 231.34,-193.06 226.43,-198.05"/>
</a>
</g>
</g>
<!-- Node8 -->
<g id="Node000008" class="node">
<title>Node8</title>
<g id="a_Node000008"><a xlink:href="driver__x9cxx_8c.html" target="_top" xlink:title="driver x9cxx source file">
<polygon fill="white" stroke="#666666" points="355.75,-162 259.5,-162 259.5,-142 355.75,-142 355.75,-162"/>
<text xml:space="preserve" text-anchor="middle" x="307.62" y="-148.5" font-family="Helvetica,sans-Serif" font-size="10.00">src/driver_x9cxx.c</text>
</a>
</g>
</g>
<!-- Node1&#45;&gt;Node8 -->
<g id="edge7_Node000001_Node000008" class="edge">
<title>Node1&#45;&gt;Node8</title>
<g id="a_edge7_Node000001_Node000008"><a xlink:title=" ">
<path fill="none" stroke="#63b8ff" d="M264.34,-195.58C275.46,-184.63 289.36,-170.97 298.36,-162.11"/>
<polygon fill="#63b8ff" stroke="#63b8ff" points="261.91,-193.06 257.24,-202.56 266.82,-198.05 261.91,-193.06"/>
</a>
</g>
</g>
<!-- Node3 -->
<g id="Node000003" class="node">
<title>Node3</title>
<g id="a_Node000003"><a xlink:href="driver__x9cxx__basic_8h.html" target="_top" xlink:title="driver x9cxx basic header file">
<polygon fill="white" stroke="#666666" points="111.25,-100 0,-100 0,-68 111.25,-68 111.25,-100"/>
<text xml:space="preserve" text-anchor="start" x="8" y="-86.5" font-family="Helvetica,sans-Serif" font-size="10.00">example/driver_x9cxx</text>
<text xml:space="preserve" text-anchor="middle" x="55.62" y="-74.5" font-family="Helvetica,sans-Serif" font-size="10.00">_basic.h</text>
</a>
</g>
</g>
<!-- Node2&#45;&gt;Node3 -->
<g id="edge2_Node000002_Node000003" class="edge">
<title>Node2&#45;&gt;Node3</title>
<g id="a_edge2_Node000002_Node000003"><a xlink:title=" ">
<path fill="none" stroke="#63b8ff" d="M144.93,-130.34C125.84,-120.65 103.48,-109.3 85.91,-100.38"/>
<polygon fill="#63b8ff" stroke="#63b8ff" points="143.3,-133.43 153.8,-134.84 146.46,-127.19 143.3,-133.43"/>
</a>
</g>
</g>
<!-- Node5 -->
<g id="Node000005" class="node">
<title>Node5</title>
<g id="a_Node000005"><a xlink:href="driver__x9cxx__interface__template_8c.html" target="_top" xlink:title="driver x9cxx interface template source file">
<polygon fill="white" stroke="#666666" points="241.62,-100 129.62,-100 129.62,-68 241.62,-68 241.62,-100"/>
<text xml:space="preserve" text-anchor="start" x="137.62" y="-86.5" font-family="Helvetica,sans-Serif" font-size="10.00">interface/driver_x9cxx</text>
<text xml:space="preserve" text-anchor="middle" x="185.62" y="-74.5" font-family="Helvetica,sans-Serif" font-size="10.00">_interface_template.c</text>
</a>
</g>
</g>
<!-- Node2&#45;&gt;Node5 -->
<g id="edge4_Node000002_Node000005" class="edge">
<title>Node2&#45;&gt;Node5</title>
<g id="a_edge4_Node000002_Node000005"><a xlink:title=" ">
<path fill="none" stroke="#63b8ff" d="M185.62,-124.31C185.62,-116.12 185.62,-107.38 185.62,-100.22"/>
<polygon fill="#63b8ff" stroke="#63b8ff" points="182.13,-124.18 185.63,-134.18 189.13,-124.18 182.13,-124.18"/>
</a>
</g>
</g>
<!-- Node6 -->
<g id="Node000006" class="node">
<title>Node6</title>
<g id="a_Node000006"><a xlink:href="driver__x9cxx__output__test_8h.html" target="_top" xlink:title="driver x9cxx output test header file">
<polygon fill="white" stroke="#666666" points="383.25,-100 260,-100 260,-68 383.25,-68 383.25,-100"/>
<text xml:space="preserve" text-anchor="start" x="268" y="-86.5" font-family="Helvetica,sans-Serif" font-size="10.00">test/driver_x9cxx_output</text>
<text xml:space="preserve" text-anchor="middle" x="321.62" y="-74.5" font-family="Helvetica,sans-Serif" font-size="10.00">_test.h</text>
</a>
</g>
</g>
<!-- Node2&#45;&gt;Node6 -->
<g id="edge5_Node000002_Node000006" class="edge">
<title>Node2&#45;&gt;Node6</title>
<g id="a_edge5_Node000002_Node000006"><a xlink:title=" ">
<path fill="none" stroke="#63b8ff" d="M227.65,-130.61C247.74,-120.86 271.39,-109.38 289.94,-100.38"/>
<polygon fill="#63b8ff" stroke="#63b8ff" points="226.34,-127.35 218.87,-134.87 229.4,-133.65 226.34,-127.35"/>
</a>
</g>
</g>
<!-- Node4 -->
<g id="Node000004" class="node">
<title>Node4</title>
<g id="a_Node000004"><a xlink:href="driver__x9cxx__basic_8c.html" target="_top" xlink:title="driver x9cxx basic source file">
<polygon fill="white" stroke="#666666" points="111.25,-32 0,-32 0,0 111.25,0 111.25,-32"/>
<text xml:space="preserve" text-anchor="start" x="8" y="-18.5" font-family="Helvetica,sans-Serif" font-size="10.00">example/driver_x9cxx</text>
<text xml:space="preserve" text-anchor="middle" x="55.62" y="-6.5" font-family="Helvetica,sans-Serif" font-size="10.00">_basic.c</text>
</a>
</g>
</g>
<!-- Node3&#45;&gt;Node4 -->
<g id="edge3_Node000003_Node000004" class="edge">
<title>Node3&#45;&gt;Node4</title>
<g id="a_edge3_Node000003_Node000004"><a xlink:title=" ">
<path fill="none" stroke="#63b8ff" d="M55.62,-56.31C55.62,-48.12 55.62,-39.38 55.62,-32.22"/>
<polygon fill="#63b8ff" stroke="#63b8ff" points="52.13,-56.18 55.63,-66.18 59.13,-56.18 52.13,-56.18"/>
</a>
</g>
</g>
<!-- Node7 -->
<g id="Node000007" class="node">
<title>Node7</title>
<g id="a_Node000007"><a xlink:href="driver__x9cxx__output__test_8c.html" target="_top" xlink:title="driver x9cxx output test source file">
<polygon fill="white" stroke="#666666" points="383.25,-32 260,-32 260,0 383.25,0 383.25,-32"/>
<text xml:space="preserve" text-anchor="start" x="268" y="-18.5" font-family="Helvetica,sans-Serif" font-size="10.00">test/driver_x9cxx_output</text>
<text xml:space="preserve" text-anchor="middle" x="321.62" y="-6.5" font-family="Helvetica,sans-Serif" font-size="10.00">_test.c</text>
</a>
</g>
</g>
<!-- Node6&#45;&gt;Node7 -->
<g id="edge6_Node000006_Node000007" class="edge">
<title>Node6&#45;&gt;Node7</title>
<g id="a_edge6_Node000006_Node000007"><a xlink:title=" ">
<path fill="none" stroke="#63b8ff" d="M321.62,-56.31C321.62,-48.12 321.62,-39.38 321.62,-32.22"/>
<polygon fill="#63b8ff" stroke="#63b8ff" points="318.13,-56.18 321.63,-66.18 325.13,-56.18 318.13,-56.18"/>
</a>
</g>
</g>
</g>
</svg>
