<?xml version="1.0" encoding="UTF-8" standalone="no"?>
<!DOCTYPE svg PUBLIC "-//W3C//DTD SVG 1.1//EN"
 "http://www.w3.org/Graphics/SVG/1.1/DTD/svg11.dtd">
<!-- Generated by graphviz version 13.1.0 (20250701.0955)
 -->
<!-- Title: x9cxx_basic_init Pages: 1 -->
<svg width="265pt" height="642pt"
 viewBox="0.00 0.00 265.00 642.00" xmlns="http://www.w3.org/2000/svg" xmlns:xlink="http://www.w3.org/1999/xlink">
<g id="graph0" class="graph" transform="scale(1 1) rotate(0) translate(4 638)">
<title>x9cxx_basic_init</title>
<!-- Node1 -->
<g id="Node000001" class="node">
<title>Node1</title>
<g id="a_Node000001"><a xlink:title="basic example init">
<polygon fill="#999999" stroke="#666666" points="88.75,-336 0,-336 0,-316 88.75,-316 88.75,-336"/>
<text xml:space="preserve" text-anchor="middle" x="44.38" y="-322.5" font-family="Helvetica,sans-Serif" font-size="10.00">x9cxx_basic_init</text>
</a>
</g>
</g>
<!-- Node2 -->
<g id="Node000002" class="node">
<title>Node2</title>
<g id="a_Node000002"><a xlink:href="group__x9cxx__basic__driver.html#gae31c1e552c31bce75da52ae15b163772" target="_top" xlink:title="initialize the chip">
<polygon fill="white" stroke="#666666" points="221,-634 160.75,-634 160.75,-614 221,-614 221,-634"/>
<text xml:space="preserve" text-anchor="middle" x="190.88" y="-620.5" font-family="Helvetica,sans-Serif" font-size="10.00">x9cxx_init</text>
</a>
</g>
</g>
<!-- Node1&#45;&gt;Node2 -->
<g id="edge1_Node000001_Node000002" class="edge">
<title>Node1&#45;&gt;Node2</title>
<g id="a_edge1_Node000001_Node000002"><a xlink:title=" ">
<path fill="none" stroke="#63b8ff" d="M45.01,-336.34C44.17,-376.84 46.67,-526.4 124.75,-605 131.42,-611.71 140.31,-616.08 149.38,-618.92"/>
<polygon fill="#63b8ff" stroke="#63b8ff" points="148.38,-622.28 158.93,-621.31 150.08,-615.49 148.38,-622.28"/>
</a>
</g>
</g>
<!-- Node3 -->
<g id="Node000003" class="node">
<title>Node3</title>
<g id="a_Node000003"><a xlink:href="group__x9cxx__interface__driver.html#gaf41941d065b89fa9da696d0393b516cf" target="_top" xlink:title="interface cs gpio deinit">
<polygon fill="white" stroke="#666666" points="241.25,-596 140.5,-596 140.5,-564 241.25,-564 241.25,-596"/>
<text xml:space="preserve" text-anchor="start" x="148.5" y="-582.5" font-family="Helvetica,sans-Serif" font-size="10.00">x9cxx_interface_cs</text>
<text xml:space="preserve" text-anchor="middle" x="190.88" y="-570.5" font-family="Helvetica,sans-Serif" font-size="10.00">_gpio_deinit</text>
</a>
</g>
</g>
<!-- Node1&#45;&gt;Node3 -->
<g id="edge2_Node000001_Node000003" class="edge">
<title>Node1&#45;&gt;Node3</title>
<g id="a_edge2_Node000001_Node000003"><a xlink:title=" ">
<path fill="none" stroke="#63b8ff" d="M45.97,-336.49C48.55,-372.11 61.69,-489.84 124.75,-555 126.53,-556.84 128.46,-558.54 130.5,-560.13"/>
<polygon fill="#63b8ff" stroke="#63b8ff" points="128.49,-562.99 138.79,-565.48 132.29,-557.11 128.49,-562.99"/>
</a>
</g>
</g>
<!-- Node4 -->
<g id="Node000004" class="node">
<title>Node4</title>
<g id="a_Node000004"><a xlink:href="group__x9cxx__interface__driver.html#ga21fa8dce98da873dd961824ba1806769" target="_top" xlink:title="interface cs gpio init">
<polygon fill="white" stroke="#666666" points="241.25,-546 140.5,-546 140.5,-514 241.25,-514 241.25,-546"/>
<text xml:space="preserve" text-anchor="start" x="148.5" y="-532.5" font-family="Helvetica,sans-Serif" font-size="10.00">x9cxx_interface_cs</text>
<text xml:space="preserve" text-anchor="middle" x="190.88" y="-520.5" font-family="Helvetica,sans-Serif" font-size="10.00">_gpio_init</text>
</a>
</g>
</g>
<!-- Node1&#45;&gt;Node4 -->
<g id="edge3_Node000001_Node000004" class="edge">
<title>Node1&#45;&gt;Node4</title>
<g id="a_edge3_Node000001_Node000004"><a xlink:title=" ">
<path fill="none" stroke="#63b8ff" d="M47.13,-336.5C52.74,-366.87 73,-455.82 124.75,-505 126.57,-506.73 128.52,-508.34 130.57,-509.85"/>
<polygon fill="#63b8ff" stroke="#63b8ff" points="128.46,-512.66 138.8,-514.97 132.16,-506.71 128.46,-512.66"/>
</a>
</g>
</g>
<!-- Node5 -->
<g id="Node000005" class="node">
<title>Node5</title>
<g id="a_Node000005"><a xlink:href="group__x9cxx__interface__driver.html#ga16fa62ecfbc9b9053fe768804bdd6ed1" target="_top" xlink:title="interface cs gpio write">
<polygon fill="white" stroke="#666666" points="241.25,-496 140.5,-496 140.5,-464 241.25,-464 241.25,-496"/>
<text xml:space="preserve" text-anchor="start" x="148.5" y="-482.5" font-family="Helvetica,sans-Serif" font-size="10.00">x9cxx_interface_cs</text>
<text xml:space="preserve" text-anchor="middle" x="190.88" y="-470.5" font-family="Helvetica,sans-Serif" font-size="10.00">_gpio_write</text>
</a>
</g>
</g>
<!-- Node1&#45;&gt;Node5 -->
<g id="edge4_Node000001_Node000005" class="edge">
<title>Node1&#45;&gt;Node5</title>
<g id="a_edge4_Node000001_Node000005"><a xlink:title=" ">
<path fill="none" stroke="#63b8ff" d="M49.02,-336.27C58.09,-360.37 83.88,-421.07 124.75,-455 126.64,-456.57 128.65,-458.05 130.73,-459.44"/>
<polygon fill="#63b8ff" stroke="#63b8ff" points="128.57,-462.24 138.98,-464.24 132.09,-456.19 128.57,-462.24"/>
</a>
</g>
</g>
<!-- Node6 -->
<g id="Node000006" class="node">
<title>Node6</title>
<g id="a_Node000006"><a xlink:href="group__x9cxx__interface__driver.html#ga02f7255fab0fdb43a3d4f2f25e38de4e" target="_top" xlink:title="interface print format data">
<polygon fill="white" stroke="#666666" points="249.12,-446 132.62,-446 132.62,-414 249.12,-414 249.12,-446"/>
<text xml:space="preserve" text-anchor="start" x="140.62" y="-432.5" font-family="Helvetica,sans-Serif" font-size="10.00">x9cxx_interface_debug</text>
<text xml:space="preserve" text-anchor="middle" x="190.88" y="-420.5" font-family="Helvetica,sans-Serif" font-size="10.00">_print</text>
</a>
</g>
</g>
<!-- Node1&#45;&gt;Node6 -->
<g id="edge5_Node000001_Node000006" class="edge">
<title>Node1&#45;&gt;Node6</title>
<g id="a_edge5_Node000001_Node000006"><a xlink:title=" ">
<path fill="none" stroke="#63b8ff" d="M53.34,-336.35C66.55,-352.9 94.56,-385.45 124.75,-405 126.58,-406.19 128.47,-407.33 130.41,-408.43"/>
<polygon fill="#63b8ff" stroke="#63b8ff" points="128.58,-411.42 139.08,-412.87 131.78,-405.19 128.58,-411.42"/>
</a>
</g>
</g>
<!-- Node7 -->
<g id="Node000007" class="node">
<title>Node7</title>
<g id="a_Node000007"><a xlink:href="group__x9cxx__interface__driver.html#gaeffe9147a778885921387f226b5b6989" target="_top" xlink:title="interface delay ms">
<polygon fill="white" stroke="#666666" points="257,-396 124.75,-396 124.75,-376 257,-376 257,-396"/>
<text xml:space="preserve" text-anchor="middle" x="190.88" y="-382.5" font-family="Helvetica,sans-Serif" font-size="10.00">x9cxx_interface_delay_ms</text>
</a>
</g>
</g>
<!-- Node1&#45;&gt;Node7 -->
<g id="edge6_Node000001_Node000007" class="edge">
<title>Node1&#45;&gt;Node7</title>
<g id="a_edge6_Node000001_Node000007"><a xlink:title=" ">
<path fill="none" stroke="#63b8ff" d="M63.19,-336.47C78.98,-345.44 102.86,-358.25 124.75,-367 129.3,-368.82 134.1,-370.55 138.93,-372.17"/>
<polygon fill="#63b8ff" stroke="#63b8ff" points="137.48,-375.38 148.07,-375.08 139.6,-368.71 137.48,-375.38"/>
</a>
</g>
</g>
<!-- Node8 -->
<g id="Node000008" class="node">
<title>Node8</title>
<g id="a_Node000008"><a xlink:href="group__x9cxx__interface__driver.html#ga95139e4b2860ce82ea82d5154eba3cd0" target="_top" xlink:title="interface delay us">
<polygon fill="white" stroke="#666666" points="255.5,-358 126.25,-358 126.25,-338 255.5,-338 255.5,-358"/>
<text xml:space="preserve" text-anchor="middle" x="190.88" y="-344.5" font-family="Helvetica,sans-Serif" font-size="10.00">x9cxx_interface_delay_us</text>
</a>
</g>
</g>
<!-- Node1&#45;&gt;Node8 -->
<g id="edge7_Node000001_Node000008" class="edge">
<title>Node1&#45;&gt;Node8</title>
<g id="a_edge7_Node000001_Node000008"><a xlink:title=" ">
<path fill="none" stroke="#63b8ff" d="M89.12,-332.66C97.15,-333.88 105.74,-335.19 114.39,-336.51"/>
<polygon fill="#63b8ff" stroke="#63b8ff" points="113.84,-339.96 124.26,-338.01 114.9,-333.04 113.84,-339.96"/>
</a>
</g>
</g>
<!-- Node9 -->
<g id="Node000009" class="node">
<title>Node9</title>
<g id="a_Node000009"><a xlink:href="group__x9cxx__interface__driver.html#ga5698e83905c2340e2e34222a8b3cfddf" target="_top" xlink:title="interface inc gpio deinit">
<polygon fill="white" stroke="#666666" points="242.38,-320 139.38,-320 139.38,-288 242.38,-288 242.38,-320"/>
<text xml:space="preserve" text-anchor="start" x="147.38" y="-306.5" font-family="Helvetica,sans-Serif" font-size="10.00">x9cxx_interface_inc</text>
<text xml:space="preserve" text-anchor="middle" x="190.88" y="-294.5" font-family="Helvetica,sans-Serif" font-size="10.00">_gpio_deinit</text>
</a>
</g>
</g>
<!-- Node1&#45;&gt;Node9 -->
<g id="edge8_Node000001_Node000009" class="edge">
<title>Node1&#45;&gt;Node9</title>
<g id="a_edge8_Node000001_Node000009"><a xlink:title=" ">
<path fill="none" stroke="#63b8ff" d="M89.12,-319.34C101.26,-317.49 114.69,-315.45 127.67,-313.47"/>
<polygon fill="#63b8ff" stroke="#63b8ff" points="128.06,-316.95 137.42,-311.99 127.01,-310.03 128.06,-316.95"/>
</a>
</g>
</g>
<!-- Node10 -->
<g id="Node000010" class="node">
<title>Node10</title>
<g id="a_Node000010"><a xlink:href="group__x9cxx__interface__driver.html#ga0b6e90d4195b8d1ff4cc9a16c6e42958" target="_top" xlink:title="interface inc gpio init">
<polygon fill="white" stroke="#666666" points="242.38,-270 139.38,-270 139.38,-238 242.38,-238 242.38,-270"/>
<text xml:space="preserve" text-anchor="start" x="147.38" y="-256.5" font-family="Helvetica,sans-Serif" font-size="10.00">x9cxx_interface_inc</text>
<text xml:space="preserve" text-anchor="middle" x="190.88" y="-244.5" font-family="Helvetica,sans-Serif" font-size="10.00">_gpio_init</text>
</a>
</g>
</g>
<!-- Node1&#45;&gt;Node10 -->
<g id="edge9_Node000001_Node000010" class="edge">
<title>Node1&#45;&gt;Node10</title>
<g id="a_edge9_Node000001_Node000010"><a xlink:title=" ">
<path fill="none" stroke="#63b8ff" d="M61.05,-315.65C76.76,-305.53 101.83,-290.09 124.75,-279 127.66,-277.59 130.68,-276.2 133.74,-274.85"/>
<polygon fill="#63b8ff" stroke="#63b8ff" points="135.03,-278.1 142.87,-270.98 132.3,-271.66 135.03,-278.1"/>
</a>
</g>
</g>
<!-- Node11 -->
<g id="Node000011" class="node">
<title>Node11</title>
<g id="a_Node000011"><a xlink:href="group__x9cxx__interface__driver.html#gac98b2c7f0b855cfa15d3d9d78dd0dfa3" target="_top" xlink:title="interface inc gpio write">
<polygon fill="white" stroke="#666666" points="242.38,-220 139.38,-220 139.38,-188 242.38,-188 242.38,-220"/>
<text xml:space="preserve" text-anchor="start" x="147.38" y="-206.5" font-family="Helvetica,sans-Serif" font-size="10.00">x9cxx_interface_inc</text>
<text xml:space="preserve" text-anchor="middle" x="190.88" y="-194.5" font-family="Helvetica,sans-Serif" font-size="10.00">_gpio_write</text>
</a>
</g>
</g>
<!-- Node1&#45;&gt;Node11 -->
<g id="edge10_Node000001_Node000011" class="edge">
<title>Node1&#45;&gt;Node11</title>
<g id="a_edge10_Node000001_Node000011"><a xlink:title=" ">
<path fill="none" stroke="#63b8ff" d="M51.25,-315.74C62.88,-296.24 90.71,-253.6 124.75,-229 126.27,-227.9 127.84,-226.85 129.46,-225.83"/>
<polygon fill="#63b8ff" stroke="#63b8ff" points="130.74,-229.12 137.76,-221.19 127.32,-223.01 130.74,-229.12"/>
</a>
</g>
</g>
<!-- Node12 -->
<g id="Node000012" class="node">
<title>Node12</title>
<g id="a_Node000012"><a xlink:href="group__x9cxx__interface__driver.html#ga93c3ffeb5f614be247f702dc03d9bcac" target="_top" xlink:title="interface up down gpio deinit">
<polygon fill="white" stroke="#666666" points="241.25,-170 140.5,-170 140.5,-138 241.25,-138 241.25,-170"/>
<text xml:space="preserve" text-anchor="start" x="148.5" y="-156.5" font-family="Helvetica,sans-Serif" font-size="10.00">x9cxx_interface_up</text>
<text xml:space="preserve" text-anchor="middle" x="190.88" y="-144.5" font-family="Helvetica,sans-Serif" font-size="10.00">_down_gpio_deinit</text>
</a>
</g>
</g>
<!-- Node1&#45;&gt;Node12 -->
<g id="edge11_Node000001_Node000012" class="edge">
<title>Node1&#45;&gt;Node12</title>
<g id="a_edge11_Node000001_Node000012"><a xlink:title=" ">
<path fill="none" stroke="#63b8ff" d="M48.14,-315.88C55.82,-289.59 79.88,-218.45 124.75,-179 126.6,-177.38 128.56,-175.85 130.61,-174.42"/>
<polygon fill="#63b8ff" stroke="#63b8ff" points="132,-177.67 138.77,-169.52 128.4,-171.67 132,-177.67"/>
</a>
</g>
</g>
<!-- Node13 -->
<g id="Node000013" class="node">
<title>Node13</title>
<g id="a_Node000013"><a xlink:href="group__x9cxx__interface__driver.html#ga9bcb7fda4f5636ea07f10f5179a925e7" target="_top" xlink:title="interface up down gpio init">
<polygon fill="white" stroke="#666666" points="241.25,-120 140.5,-120 140.5,-88 241.25,-88 241.25,-120"/>
<text xml:space="preserve" text-anchor="start" x="148.5" y="-106.5" font-family="Helvetica,sans-Serif" font-size="10.00">x9cxx_interface_up</text>
<text xml:space="preserve" text-anchor="middle" x="190.88" y="-94.5" font-family="Helvetica,sans-Serif" font-size="10.00">_down_gpio_init</text>
</a>
</g>
</g>
<!-- Node1&#45;&gt;Node13 -->
<g id="edge12_Node000001_Node000013" class="edge">
<title>Node1&#45;&gt;Node13</title>
<g id="a_edge12_Node000001_Node000013"><a xlink:title=" ">
<path fill="none" stroke="#63b8ff" d="M46.6,-315.85C50.99,-283.88 68.76,-184.08 124.75,-129 126.57,-127.21 128.54,-125.54 130.61,-123.99"/>
<polygon fill="#63b8ff" stroke="#63b8ff" points="132.39,-127 138.99,-118.72 128.66,-121.08 132.39,-127"/>
</a>
</g>
</g>
<!-- Node14 -->
<g id="Node000014" class="node">
<title>Node14</title>
<g id="a_Node000014"><a xlink:href="group__x9cxx__interface__driver.html#ga63255ae919897b92f2b0e15128eabe3b" target="_top" xlink:title="interface up down gpio write">
<polygon fill="white" stroke="#666666" points="241.25,-70 140.5,-70 140.5,-38 241.25,-38 241.25,-70"/>
<text xml:space="preserve" text-anchor="start" x="148.5" y="-56.5" font-family="Helvetica,sans-Serif" font-size="10.00">x9cxx_interface_up</text>
<text xml:space="preserve" text-anchor="middle" x="190.88" y="-44.5" font-family="Helvetica,sans-Serif" font-size="10.00">_down_gpio_write</text>
</a>
</g>
</g>
<!-- Node1&#45;&gt;Node14 -->
<g id="edge13_Node000001_Node000014" class="edge">
<title>Node1&#45;&gt;Node14</title>
<g id="a_edge13_Node000001_Node000014"><a xlink:title=" ">
<path fill="none" stroke="#63b8ff" d="M45.65,-315.75C47.21,-278.7 57.43,-150.17 124.75,-79 126.68,-76.96 128.79,-75.08 131.04,-73.36"/>
<polygon fill="#63b8ff" stroke="#63b8ff" points="132.49,-76.59 139.01,-68.25 128.71,-70.7 132.49,-76.59"/>
</a>
</g>
</g>
<!-- Node15 -->
<g id="Node000015" class="node">
<title>Node15</title>
<g id="a_Node000015"><a xlink:href="group__x9cxx__basic__driver.html#ga1e822396919de5848edfdeedcc1ee3b3" target="_top" xlink:title="set chip type">
<polygon fill="white" stroke="#666666" points="233.38,-20 148.38,-20 148.38,0 233.38,0 233.38,-20"/>
<text xml:space="preserve" text-anchor="middle" x="190.88" y="-6.5" font-family="Helvetica,sans-Serif" font-size="10.00">x9cxx_set_type</text>
</a>
</g>
</g>
<!-- Node1&#45;&gt;Node15 -->
<g id="edge14_Node000001_Node000015" class="edge">
<title>Node1&#45;&gt;Node15</title>
<g id="a_edge14_Node000001_Node000015"><a xlink:title=" ">
<path fill="none" stroke="#63b8ff" d="M46.78,-315.56C53.4,-267.95 82.87,-71.84 124.75,-29 128.51,-25.15 133.01,-22.07 137.86,-19.6"/>
<polygon fill="#63b8ff" stroke="#63b8ff" points="138.86,-22.98 146.78,-15.94 136.2,-16.5 138.86,-22.98"/>
</a>
</g>
</g>
</g>
</svg>
