<?xml version="1.0" encoding="UTF-8" standalone="no"?>
<!DOCTYPE svg PUBLIC "-//W3C//DTD SVG 1.1//EN"
 "http://www.w3.org/Graphics/SVG/1.1/DTD/svg11.dtd">
<!-- Generated by graphviz version 13.1.0 (20250701.0955)
 -->
<!-- Title: x9cxx_basic_get_resistor Pages: 1 -->
<svg width="294pt" height="78pt"
 viewBox="0.00 0.00 294.00 78.00" xmlns="http://www.w3.org/2000/svg" xmlns:xlink="http://www.w3.org/1999/xlink">
<g id="graph0" class="graph" transform="scale(1 1) rotate(0) translate(4 74)">
<title>x9cxx_basic_get_resistor</title>
<!-- Node1 -->
<g id="Node000001" class="node">
<title>Node1</title>
<g id="a_Node000001"><a xlink:title="basic example get resistor">
<polygon fill="#999999" stroke="#666666" points="127,-48 0,-48 0,-28 127,-28 127,-48"/>
<text xml:space="preserve" text-anchor="middle" x="63.5" y="-34.5" font-family="Helvetica,sans-Serif" font-size="10.00">x9cxx_basic_get_resistor</text>
</a>
</g>
</g>
<!-- Node2 -->
<g id="Node000002" class="node">
<title>Node2</title>
<g id="a_Node000002"><a xlink:href="group__x9cxx__basic__driver.html#ga45293733100e47483102ece3891ccd8c" target="_top" xlink:title="get step counter">
<polygon fill="white" stroke="#666666" points="285.5,-70 163,-70 163,-50 285.5,-50 285.5,-70"/>
<text xml:space="preserve" text-anchor="middle" x="224.25" y="-56.5" font-family="Helvetica,sans-Serif" font-size="10.00">x9cxx_get_step_counter</text>
</a>
</g>
</g>
<!-- Node1&#45;&gt;Node2 -->
<g id="edge1_Node000001_Node000002" class="edge">
<title>Node1&#45;&gt;Node2</title>
<g id="a_edge1_Node000001_Node000002"><a xlink:title=" ">
<path fill="none" stroke="#63b8ff" d="M127.24,-46.69C135.14,-47.79 143.26,-48.91 151.28,-50.03"/>
<polygon fill="#63b8ff" stroke="#63b8ff" points="150.63,-53.47 161.02,-51.38 151.59,-46.54 150.63,-53.47"/>
</a>
</g>
</g>
<!-- Node3 -->
<g id="Node000003" class="node">
<title>Node3</title>
<g id="a_Node000003"><a xlink:href="group__x9cxx__basic__driver.html#gae6780f053e5601aba2ca01cc80e86a4c" target="_top" xlink:title="resistor convert to data">
<polygon fill="white" stroke="#666666" points="282.88,-32 165.62,-32 165.62,0 282.88,0 282.88,-32"/>
<text xml:space="preserve" text-anchor="start" x="173.62" y="-18.5" font-family="Helvetica,sans-Serif" font-size="10.00">x9cxx_resistor_convert</text>
<text xml:space="preserve" text-anchor="middle" x="224.25" y="-6.5" font-family="Helvetica,sans-Serif" font-size="10.00">_to_data</text>
</a>
</g>
</g>
<!-- Node1&#45;&gt;Node3 -->
<g id="edge2_Node000001_Node000003" class="edge">
<title>Node1&#45;&gt;Node3</title>
<g id="a_edge2_Node000001_Node000003"><a xlink:title=" ">
<path fill="none" stroke="#63b8ff" d="M127.24,-29.31C136.08,-28.08 145.2,-26.82 154.15,-25.58"/>
<polygon fill="#63b8ff" stroke="#63b8ff" points="154.43,-29.07 163.85,-24.23 153.47,-22.14 154.43,-29.07"/>
</a>
</g>
</g>
</g>
</svg>
