<?xml version="1.0" encoding="UTF-8" standalone="no"?>
<!DOCTYPE svg PUBLIC "-//W3C//DTD SVG 1.1//EN"
 "http://www.w3.org/Graphics/SVG/1.1/DTD/svg11.dtd">
<!-- Generated by graphviz version 13.1.0 (20250701.0955)
 -->
<!-- Title: x9cxx_basic_set_absolute_resistor Pages: 1 -->
<svg width="293pt" height="90pt"
 viewBox="0.00 0.00 293.00 90.00" xmlns="http://www.w3.org/2000/svg" xmlns:xlink="http://www.w3.org/1999/xlink">
<g id="graph0" class="graph" transform="scale(1 1) rotate(0) translate(4 86)">
<title>x9cxx_basic_set_absolute_resistor</title>
<!-- Node1 -->
<g id="Node000001" class="node">
<title>Node1</title>
<g id="a_Node000001"><a xlink:title="basic example set absolute resistor">
<polygon fill="#999999" stroke="#666666" points="131.5,-57 0,-57 0,-25 131.5,-25 131.5,-57"/>
<text xml:space="preserve" text-anchor="start" x="8" y="-43.5" font-family="Helvetica,sans-Serif" font-size="10.00">x9cxx_basic_set_absolute</text>
<text xml:space="preserve" text-anchor="middle" x="65.75" y="-31.5" font-family="Helvetica,sans-Serif" font-size="10.00">_resistor</text>
</a>
</g>
</g>
<!-- Node2 -->
<g id="Node000002" class="node">
<title>Node2</title>
<g id="a_Node000002"><a xlink:href="group__x9cxx__basic__driver.html#ga86e2a876a28d3c351deaad16d574b692" target="_top" xlink:title="resistor convert to register">
<polygon fill="white" stroke="#666666" points="284.75,-82 167.5,-82 167.5,-50 284.75,-50 284.75,-82"/>
<text xml:space="preserve" text-anchor="start" x="175.5" y="-68.5" font-family="Helvetica,sans-Serif" font-size="10.00">x9cxx_resistor_convert</text>
<text xml:space="preserve" text-anchor="middle" x="226.12" y="-56.5" font-family="Helvetica,sans-Serif" font-size="10.00">_to_register</text>
</a>
</g>
</g>
<!-- Node1&#45;&gt;Node2 -->
<g id="edge1_Node000001_Node000002" class="edge">
<title>Node1&#45;&gt;Node2</title>
<g id="a_edge1_Node000001_Node000002"><a xlink:title=" ">
<path fill="none" stroke="#63b8ff" d="M131.62,-51.24C139.64,-52.51 147.85,-53.8 155.93,-55.08"/>
<polygon fill="#63b8ff" stroke="#63b8ff" points="155.29,-58.52 165.72,-56.62 156.38,-51.61 155.29,-58.52"/>
</a>
</g>
</g>
<!-- Node3 -->
<g id="Node000003" class="node">
<title>Node3</title>
<g id="a_Node000003"><a xlink:href="group__x9cxx__basic__driver.html#ga0916a5f4cfe7be7e144ae6c78bdaec76" target="_top" xlink:title="set absolute step counter">
<polygon fill="white" stroke="#666666" points="277.62,-32 174.62,-32 174.62,0 277.62,0 277.62,-32"/>
<text xml:space="preserve" text-anchor="start" x="182.62" y="-18.5" font-family="Helvetica,sans-Serif" font-size="10.00">x9cxx_set_absolute</text>
<text xml:space="preserve" text-anchor="middle" x="226.12" y="-6.5" font-family="Helvetica,sans-Serif" font-size="10.00">_step_counter</text>
</a>
</g>
</g>
<!-- Node1&#45;&gt;Node3 -->
<g id="edge2_Node000001_Node000003" class="edge">
<title>Node1&#45;&gt;Node3</title>
<g id="a_edge2_Node000001_Node000003"><a xlink:title=" ">
<path fill="none" stroke="#63b8ff" d="M131.62,-30.76C141.93,-29.13 152.56,-27.45 162.81,-25.84"/>
<polygon fill="#63b8ff" stroke="#63b8ff" points="163.34,-29.3 172.67,-24.28 162.25,-22.38 163.34,-29.3"/>
</a>
</g>
</g>
</g>
</svg>
