<?xml version="1.0" encoding="UTF-8" standalone="no"?>
<!DOCTYPE svg PUBLIC "-//W3C//DTD SVG 1.1//EN"
 "http://www.w3.org/Graphics/SVG/1.1/DTD/svg11.dtd">
<!-- Generated by graphviz version 13.1.0 (20250701.0955)
 -->
<!-- Title: x9cxx driver function Pages: 1 -->
<svg width="277pt" height="216pt"
 viewBox="0.00 0.00 277.00 216.00" xmlns="http://www.w3.org/2000/svg" xmlns:xlink="http://www.w3.org/1999/xlink">
<g id="graph0" class="graph" transform="scale(1 1) rotate(0) translate(4 212)">
<title>x9cxx driver function</title>
<!-- Node3 -->
<g id="Node000003" class="node">
<title>Node3</title>
<g id="a_Node000003"><a xlink:href="group__x9cxx__basic__driver.html" target="_top" xlink:title="x9cxx basic driver modules">
<polygon fill="white" stroke="#666666" points="253.62,-208 158.12,-208 158.12,-176 253.62,-176 253.62,-208"/>
<text xml:space="preserve" text-anchor="start" x="166.12" y="-194.5" font-family="Helvetica,sans-Serif" font-size="10.00">x9cxx basic driver</text>
<text xml:space="preserve" text-anchor="middle" x="205.88" y="-182.5" font-family="Helvetica,sans-Serif" font-size="10.00"> function</text>
</a>
</g>
</g>
<!-- Node1 -->
<g id="Node000001" class="node">
<title>Node1</title>
<g id="a_Node000001"><a xlink:title="x9cxx driver modules">
<polygon fill="#999999" stroke="#666666" points="106.75,-102 0,-102 0,-82 106.75,-82 106.75,-102"/>
<text xml:space="preserve" text-anchor="middle" x="53.38" y="-88.5" font-family="Helvetica,sans-Serif" font-size="10.00">x9cxx driver function</text>
</a>
</g>
</g>
<!-- Node1&#45;&gt;Node3 -->
<g id="edge2" class="edge">
<title>Node1&#45;&gt;Node3</title>
<path fill="none" stroke="black" d="M72.32,-110.29C89.29,-126.79 116.05,-150.88 142.75,-167 147.93,-170.12 153.56,-173.01 159.26,-175.63"/>
<polygon fill="black" stroke="black" points="75.04,-108.05 65.47,-103.5 70.11,-113.02 75.04,-108.05"/>
</g>
<!-- Node5 -->
<g id="Node000005" class="node">
<title>Node5</title>
<g id="a_Node000005"><a xlink:href="group__x9cxx__example__driver.html" target="_top" xlink:title="x9cxx example driver modules">
<polygon fill="white" stroke="#666666" points="260.38,-158 151.38,-158 151.38,-126 260.38,-126 260.38,-158"/>
<text xml:space="preserve" text-anchor="start" x="159.38" y="-144.5" font-family="Helvetica,sans-Serif" font-size="10.00">x9cxx example driver</text>
<text xml:space="preserve" text-anchor="middle" x="205.88" y="-132.5" font-family="Helvetica,sans-Serif" font-size="10.00"> function</text>
</a>
</g>
</g>
<!-- Node1&#45;&gt;Node5 -->
<g id="edge4" class="edge">
<title>Node1&#45;&gt;Node5</title>
<path fill="none" stroke="black" d="M96.79,-106.09C114.99,-112.14 136.37,-119.24 155.3,-125.53"/>
<polygon fill="black" stroke="black" points="97.95,-102.79 87.36,-102.96 95.75,-109.43 97.95,-102.79"/>
</g>
<!-- Node4 -->
<g id="Node000004" class="node">
<title>Node4</title>
<g id="a_Node000004"><a xlink:href="group__x9cxx__interface__driver.html" target="_top" xlink:title="x9cxx interface driver modules">
<polygon fill="white" stroke="#666666" points="260.75,-108 151,-108 151,-76 260.75,-76 260.75,-108"/>
<text xml:space="preserve" text-anchor="start" x="159" y="-94.5" font-family="Helvetica,sans-Serif" font-size="10.00">x9cxx interface driver</text>
<text xml:space="preserve" text-anchor="middle" x="205.88" y="-82.5" font-family="Helvetica,sans-Serif" font-size="10.00"> function</text>
</a>
</g>
</g>
<!-- Node1&#45;&gt;Node4 -->
<g id="edge3" class="edge">
<title>Node1&#45;&gt;Node4</title>
<path fill="none" stroke="black" d="M118.5,-92C129.24,-92 140.28,-92 150.74,-92"/>
<polygon fill="black" stroke="black" points="118.53,-88.5 108.53,-92 118.53,-95.5 118.53,-88.5"/>
</g>
<!-- Node2 -->
<g id="Node000002" class="node">
<title>Node2</title>
<g id="a_Node000002"><a xlink:href="group__x9cxx__link__driver.html" target="_top" xlink:title="x9cxx link driver modules">
<polygon fill="white" stroke="#666666" points="268.25,-58 143.5,-58 143.5,-38 268.25,-38 268.25,-58"/>
<text xml:space="preserve" text-anchor="middle" x="205.88" y="-44.5" font-family="Helvetica,sans-Serif" font-size="10.00">x9cxx link driver function</text>
</a>
</g>
</g>
<!-- Node1&#45;&gt;Node2 -->
<g id="edge1" class="edge">
<title>Node1&#45;&gt;Node2</title>
<path fill="none" stroke="black" d="M100.83,-78.42C122.85,-71.98 148.75,-64.41 169.2,-58.43"/>
<polygon fill="black" stroke="black" points="100.11,-74.98 91.49,-81.15 102.07,-81.7 100.11,-74.98"/>
</g>
<!-- Node6 -->
<g id="Node000006" class="node">
<title>Node6</title>
<g id="a_Node000006"><a xlink:href="group__x9cxx__test__driver.html" target="_top" xlink:title="x9cxx test driver modules">
<polygon fill="white" stroke="#666666" points="269,-20 142.75,-20 142.75,0 269,0 269,-20"/>
<text xml:space="preserve" text-anchor="middle" x="205.88" y="-6.5" font-family="Helvetica,sans-Serif" font-size="10.00">x9cxx test driver function</text>
</a>
</g>
</g>
<!-- Node1&#45;&gt;Node6 -->
<g id="edge5" class="edge">
<title>Node1&#45;&gt;Node6</title>
<path fill="none" stroke="black" d="M74.76,-74.55C91.94,-60.59 117.65,-41.37 142.75,-29 149.43,-25.71 156.79,-22.85 164.04,-20.42"/>
<polygon fill="black" stroke="black" points="72.79,-71.64 67.32,-80.72 77.25,-77.03 72.79,-71.64"/>
</g>
</g>
</svg>
